<?xml version="1.0" standalone="no"?>
<!DOCTYPE svg PUBLIC "-//W3C//DTD SVG 20010904//EN"
 "http://www.w3.org/TR/2001/REC-SVG-20010904/DTD/svg10.dtd">
<svg version="1.0" xmlns="http://www.w3.org/2000/svg"
 width="512.000000pt" height="512.000000pt" viewBox="0 0 512.000000 512.000000"
 preserveAspectRatio="xMidYMid meet">

<g transform="translate(0.000000,512.000000) scale(0.100000,-0.100000)"
fill="#000000" stroke="none">
<path d="M3286 4595 c-417 -79 -740 -352 -876 -740 -34 -99 -60 -245 -60 -344
l0 -63 -57 6 c-278 33 -587 127 -858 261 -297 146 -515 307 -770 565 -132 133
-155 150 -212 150 -64 0 -103 -29 -145 -106 -170 -311 -181 -673 -30 -986 l37
-76 -37 -11 c-51 -16 -94 -55 -108 -97 -27 -80 29 -351 103 -508 59 -123 113
-202 210 -303 44 -46 76 -83 71 -83 -19 0 -44 -59 -44 -105 0 -35 11 -71 44
-140 124 -262 328 -465 572 -569 l59 -25 -70 -32 c-103 -47 -287 -105 -406
-128 -144 -27 -354 -45 -472 -38 -118 6 -156 -3 -196 -48 -58 -66 -51 -159 17
-215 49 -40 391 -210 515 -255 208 -76 464 -139 688 -170 159 -22 525 -31 685
-16 591 54 1096 250 1569 610 126 95 399 366 495 491 369 478 578 1029 621
1629 6 86 13 166 15 178 2 13 99 112 229 235 237 223 253 245 242 315 -8 47
-51 102 -95 120 -21 9 -57 13 -89 11 -29 -2 -53 -2 -53 -1 0 1 18 34 39 75 22
40 47 101 57 135 17 61 17 62 -7 110 -29 57 -74 87 -133 86 -26 -1 -140 -37
-305 -97 l-263 -97 -53 41 c-134 103 -291 179 -458 221 -110 28 -358 35 -471
14z m366 -299 c141 -27 285 -95 403 -191 94 -76 201 -102 300 -71 27 8 51 14
52 12 2 -2 -12 -15 -32 -30 -45 -35 -65 -74 -65 -128 0 -52 27 -100 72 -129
26 -16 45 -19 90 -16 l58 3 -65 -67 c-96 -99 -116 -149 -126 -318 -27 -445
-113 -774 -295 -1133 -358 -704 -1014 -1199 -1806 -1363 -373 -77 -810 -72
-1198 15 -118 26 -280 73 -280 81 0 3 28 11 63 17 226 42 555 185 788 343 115
79 143 140 103 225 -26 54 -62 72 -182 94 -263 47 -448 142 -574 294 l-51 61
101 6 c81 4 108 9 129 25 50 37 68 72 68 127 0 84 -21 104 -198 191 -178 87
-286 168 -370 278 -70 91 -159 278 -132 278 4 0 65 -16 136 -35 71 -19 146
-35 167 -35 105 0 176 123 125 217 -10 18 -56 61 -103 96 -205 154 -318 333
-351 556 -12 87 -7 208 11 274 l11 38 97 -87 c394 -352 826 -584 1312 -703
232 -56 558 -98 624 -80 37 10 93 66 101 102 3 12 9 108 15 212 11 217 23 273
85 400 111 229 319 385 585 440 87 18 242 18 332 1z"/>
</g>
</svg>
